<?xml version="1.0" encoding="UTF-8"?>
<svg version="1.1" xmlns="http://www.w3.org/2000/svg" width="512" height="512">
<path d="M0 0 C0.89976562 0.52722656 1.79953125 1.05445312 2.7265625 1.59765625 C8.66606478 5.26136986 13.9605485 9.73107149 19.140625 14.38671875 C21.00980003 16.06194624 21.00980003 16.06194624 23.234375 17.58203125 C24.10835938 18.28392578 24.10835938 18.28392578 25 19 C25 19.66 25 20.32 25 21 C25.66 21 26.32 21 27 21 C34.1351326 27.57034637 40.37302888 36.65965823 43 46 C43.125 49.375 43.125 49.375 43 52 C42.34 52.33 41.68 52.66 41 53 C40.29875 52.41992188 39.5975 51.83984375 38.875 51.2421875 C33.80484287 47.06757443 28.73657837 42.97102006 23.36328125 39.19140625 C22.68845703 38.60166016 22.68845703 38.60166016 22 38 C22 37.34 22 36.68 22 36 C21.47664063 35.77441406 20.95328125 35.54882812 20.4140625 35.31640625 C17.13740757 33.52962193 14.29561818 31.24205029 11.375 28.9375 C7.37877222 25.67807651 7.37877222 25.67807651 3 23 C3 22.34 3 21.68 3 21 C2.32195312 20.76539063 1.64390625 20.53078125 0.9453125 20.2890625 C-1.97515996 19.01087164 -4.51107775 17.43646055 -7.16113281 15.67456055 C-37.51850768 -4.41399072 -75.71924463 -10.23165661 -111.2578125 -3.37109375 C-113.8960154 -2.69808281 -116.42941672 -1.89580933 -119 -1 C-120.05703125 -0.66226563 -121.1140625 -0.32453125 -122.203125 0.0234375 C-135.59806199 4.49842766 -147.73223669 10.43253967 -158.7421875 19.3125 C-161 21 -161 21 -163 21 C-163 21.66 -163 22.32 -163 23 C-164.5390625 24.48046875 -164.5390625 24.48046875 -166.625 26.1875 C-170.08787267 29.1100663 -172.97510908 32.15830902 -175.7734375 35.71484375 C-176.17820312 36.13894531 -176.58296875 36.56304687 -177 37 C-177.66 37 -178.32 37 -179 37 C-179.25652344 37.56976563 -179.51304687 38.13953125 -179.77734375 38.7265625 C-181.12940654 41.24062174 -182.72069111 43.19459594 -184.5625 45.375 C-210.39361045 77.32523426 -219.52573233 115.80262482 -215.3125 156.375 C-211.89579977 184.8625867 -199.36169765 210.22878015 -181 232 C-179.37443545 229.56165318 -178.2008 227.40308197 -177.01171875 224.75390625 C-176.63781006 223.92294434 -176.26390137 223.09198242 -175.87866211 222.23583984 C-175.28903687 220.91253662 -175.28903687 220.91253662 -174.6875 219.5625 C-174.07757202 218.2005249 -174.07757202 218.2005249 -173.45532227 216.81103516 C-170.9858287 211.27553768 -168.60231421 205.71298376 -166.30078125 200.10546875 C-164.62700875 196.10952539 -162.88203203 192.14742193 -161.125 188.1875 C-160.82134521 187.50091309 -160.51769043 186.81432617 -160.20483398 186.10693359 C-157.53129189 180.10369781 -154.74706915 174.15285416 -151.96289062 168.20043945 C-148.35086685 160.47635864 -144.76668298 152.73934296 -141.1875 145 C-140.79259369 144.14615723 -140.39768738 143.29231445 -139.99081421 142.41259766 C-134.90983957 131.4168171 -129.9181838 120.39552482 -125.13793945 109.26513672 C-121.91615711 101.76487842 -118.50391831 94.37242833 -115 87 C-113.93686324 84.75312279 -112.87525578 82.50553474 -111.81494141 80.25732422 C-111.12860561 78.80251891 -110.4408855 77.34836548 -109.75146484 75.89501953 C-108.21371181 72.64096106 -106.7235338 69.38039695 -105.328125 66.0625 C-104 63 -104 63 -103 62 C-100.78144736 61.91216458 -98.56011504 61.89305391 -96.33984375 61.90234375 C-95.34314415 61.90446617 -95.34314415 61.90446617 -94.3263092 61.90663147 C-92.19666101 61.91224482 -90.06711661 61.92479946 -87.9375 61.9375 C-86.49674631 61.94251329 -85.05599097 61.94707649 -83.61523438 61.95117188 C-80.07678898 61.96221855 -76.53840461 61.97949208 -73 62 C-69.03665366 70.48240682 -65.22675143 79.00910904 -61.5625 87.625 C-60.7862621 89.44278326 -60.01001863 91.26056414 -59.23358154 93.07826233 C-58.40434082 95.02019541 -57.57589127 96.96246459 -56.74755859 98.90478516 C-53.63098503 106.2106124 -50.50290791 113.51152008 -47.375 120.8125 C-47.05406372 121.56179779 -46.73312744 122.31109558 -46.40246582 123.08309937 C-42.17556554 132.95026471 -37.92257844 142.80541358 -33.63183594 152.64501953 C-28.88146323 163.54812517 -24.2101042 174.48508026 -19.53222656 185.41943359 C-17.02401954 191.28070895 -14.51183697 197.14027957 -12 203 C-11.01560531 205.29686656 -10.0312304 207.5937416 -9.046875 209.890625 C-8.30727539 211.61635742 -8.30727539 211.61635742 -7.55273438 213.37695312 C-3.03515625 223.91796875 1.48242188 234.45898438 6 245 C6.99 245 7.98 245 9 245 C9 244.34 9 243.68 9 243 C10.86328125 241.37890625 10.86328125 241.37890625 13.3125 239.5625 C16.63908504 237.09023023 16.63908504 237.09023023 19.66796875 234.27734375 C21 233 21 233 23 233 C23.37318359 232.14148438 23.37318359 232.14148438 23.75390625 231.265625 C25.18452634 228.66449757 26.87400362 226.88439409 28.9375 224.75 C33.59569749 219.69985062 37.41096314 214.2619163 41.19311523 208.53417969 C43.54428679 204.99768531 45.83308478 201.87901383 49 199 C51.25564693 201.25564693 50.37232454 205.83281588 50.38061523 208.86865234 C49.92621377 228.32799562 32.87229638 244.21377905 20.04296875 257.08984375 C18.11723404 258.89038729 16.14093685 260.465261 14 262 C16.25832325 269.23416214 19.1269806 276.0375066 22.25 282.9375 C23.04152856 284.70156991 23.83303137 286.46565155 24.62364197 288.23013306 C25.18490899 289.4826021 25.74665553 290.73485636 26.30885315 291.98690796 C30.21731255 300.69736843 34.05164165 309.44068829 37.8963623 318.17941284 C38.51551194 319.58634967 39.13500119 320.9931371 39.75485229 322.39976501 C40.34547994 323.74077233 40.93496852 325.08228201 41.52322388 326.42433167 C43.66198533 331.28859478 45.91657897 336.09063505 48.25219727 340.86328125 C49 343 49 343 48 346 C43.19450253 346.02468447 38.38904182 346.04285255 33.58349609 346.05493164 C31.94807289 346.05996621 30.3126542 346.06679427 28.67724609 346.07543945 C26.32909025 346.08754335 23.98099381 346.093237 21.6328125 346.09765625 C20.53273361 346.10539818 20.53273361 346.10539818 19.41043091 346.11329651 C14.22774341 346.11387171 14.22774341 346.11387171 12 345 C11.13378906 343.25683594 11.13378906 343.25683594 10.265625 340.984375 C9.93820312 340.14390625 9.61078125 339.3034375 9.2734375 338.4375 C8.93570312 337.550625 8.59796875 336.66375 8.25 335.75 C6.0473835 330.00557616 3.74016024 324.3596777 1.1328125 318.78515625 C-2.26758953 311.51040234 -5.33173524 304.11631665 -8.375 296.6875 C-8.92552825 295.34950525 -9.47630838 294.01161411 -10.02734375 292.67382812 C-11.35445268 289.4504015 -12.6782026 286.22560893 -14 283 C-17.92513592 283 -20.84985125 284.57241905 -24.375 286.125 C-55.88885254 299.47798058 -92.44508039 303.81788798 -126 296 C-126.7847168 295.82307617 -127.56943359 295.64615234 -128.37792969 295.46386719 C-144.61407062 291.72897422 -159.22765088 285.63576994 -174 278 C-175.99862133 276.99724739 -177.99819712 275.99638609 -180 275 C-180.59167969 276.88138672 -180.59167969 276.88138672 -181.1953125 278.80078125 C-183.07319648 284.42457265 -185.44868524 289.78242531 -187.875 295.1875 C-188.8538802 297.38626688 -189.83169579 299.58550795 -190.80859375 301.78515625 C-191.32405762 302.94547363 -191.83952148 304.10579102 -192.37060547 305.30126953 C-194.09811521 309.20889735 -195.7876237 313.13249951 -197.47265625 317.05859375 C-197.76192993 317.73147934 -198.05120361 318.40436493 -198.34924316 319.09764099 C-199.49202524 321.75631316 -200.63478198 324.41496141 -201.76971436 327.07699585 C-204.54699212 333.58900711 -207.28372087 339.96440449 -211 346 C-213.79192205 346.05380578 -216.5828141 346.09357669 -219.375 346.125 C-220.1690625 346.14175781 -220.963125 346.15851563 -221.78125 346.17578125 C-223.85492015 346.19335473 -225.92883241 346.10335168 -228 346 C-228.66 345.34 -229.32 344.68 -230 344 C-229.56171875 343.16984375 -229.1234375 342.3396875 -228.671875 341.484375 C-223.69532964 331.87574218 -219.37160158 322.03820541 -215.14892578 312.07733154 C-211.79105261 304.15664298 -208.35393888 296.30570874 -204.6640625 288.53515625 C-202.59987114 284.14996098 -200.60402247 279.73666377 -198.625 275.3125 C-198.27856445 274.54470215 -197.93212891 273.7769043 -197.57519531 272.98583984 C-197.25389648 272.26477051 -196.93259766 271.54370117 -196.6015625 270.80078125 C-196.17351318 269.84425659 -196.17351318 269.84425659 -195.73681641 268.8684082 C-194.97423277 266.93465984 -194.45953131 265.02524817 -194 263 C-195.32 262.34 -196.64 261.68 -198 261 C-198 260.34 -198 259.68 -198 259 C-198.556875 258.773125 -199.11375 258.54625 -199.6875 258.3125 C-202.65088161 256.63058071 -204.61404892 254.43436168 -207 252 C-207.88558594 251.13761719 -208.77117187 250.27523438 -209.68359375 249.38671875 C-220.65254237 238.63559322 -220.65254237 238.63559322 -224 233 C-224 232.34 -224 231.68 -224 231 C-224.66 231 -225.32 231 -226 231 C-226.58007812 229.98035156 -227.16015625 228.96070313 -227.7578125 227.91015625 C-229.12867459 225.50903765 -230.51917504 223.12454896 -231.9296875 220.74609375 C-236.63853359 212.7372732 -240.63272083 204.6820161 -244 196 C-244.44214844 194.86433594 -244.88429688 193.72867188 -245.33984375 192.55859375 C-246.71987728 188.7372851 -247.91885893 184.91472588 -249 181 C-249.19899902 180.28602051 -249.39799805 179.57204102 -249.60302734 178.83642578 C-260.22391325 138.39703303 -252.71832439 93.91331767 -232.21679688 58.03564453 C-230.00044091 54.32778416 -227.52597886 50.86082558 -224.88671875 47.4453125 C-222.23719249 44.01135093 -219.8556497 40.40507617 -217.4453125 36.80078125 C-216.96835938 36.20652344 -216.49140625 35.61226562 -216 35 C-215.34 35 -214.68 35 -214 35 C-213.78472656 34.46246094 -213.56945312 33.92492187 -213.34765625 33.37109375 C-211.51102092 30.13968028 -209.04964901 27.66720587 -206.4375 25.0625 C-205.59106934 24.21739868 -205.59106934 24.21739868 -204.72753906 23.35522461 C-197.70992331 16.52412671 -189.91641568 10.73764429 -182 5 C-181.16855469 4.38382813 -180.33710938 3.76765625 -179.48046875 3.1328125 C-173.06417583 -1.4064387 -165.9107848 -4.71210246 -158.84521484 -8.10546875 C-157.32998193 -8.84002993 -155.82883811 -9.60358563 -154.33203125 -10.375 C-105.27727805 -34.70231643 -45.8367282 -26.97065479 0 0 Z M-98 87 C-105.75626195 104.52478455 -113.48187639 122.06103899 -121.07836914 139.65576172 C-124.89174861 148.47952141 -128.76499715 157.2757951 -132.65734863 166.06497192 C-137.89776251 177.89821254 -143.05583316 189.75803469 -148.06323242 201.69238281 C-151.70639832 210.35935475 -155.47548322 218.96753192 -159.29785156 227.55688477 C-162.00304762 233.65379961 -164.57163576 239.78747025 -167 246 C-150.84842229 259.8592657 -130.64064302 271.99762931 -108.97338867 273.76928711 C-106.17512312 274.09643804 -103.66041678 275.0943262 -101 276 C-74.19425951 280.05882127 -47.20300033 274.82475068 -23 263 C-25.66815119 254.2918582 -29.32109258 246.03098311 -32.9375 237.6875 C-33.61341531 236.12052441 -34.28894736 234.55338345 -34.96411133 232.98608398 C-36.32796155 229.8210716 -37.69353492 226.65681208 -39.06054688 223.49316406 C-41.78347038 217.18890955 -44.48534442 210.87568098 -47.1875 204.5625 C-48.1600387 202.29291837 -49.13269433 200.02338685 -50.10546875 197.75390625 C-52.06640625 193.17838542 -54.02734375 188.60286458 -55.98828125 184.02734375 C-56.48481201 182.86887939 -56.98134277 181.71041504 -57.49291992 180.5168457 C-58.49730327 178.17306762 -59.50137251 175.82915491 -60.50512695 173.48510742 C-62.97263251 167.72385276 -65.44521204 161.96489637 -67.9296875 156.2109375 C-74.16736073 141.744051 -80.24655185 127.22105745 -86.19287109 112.63232422 C-91.26445759 99.38980571 -91.26445759 99.38980571 -98 87 Z " fill="#FFFFFF" transform="translate(327,87)"/>
<path d="" fill="#FFFFFF" transform="translate(0,0)"/>
<path d="" fill="#FFFFFF" transform="translate(0,0)"/>
<path d="" fill="#FFFFFF" transform="translate(0,0)"/>
<path d="" fill="#FFFFFF" transform="translate(0,0)"/>
<path d="" fill="#FFFFFF" transform="translate(0,0)"/>
<path d="" fill="#FFFFFF" transform="translate(0,0)"/>
<path d="" fill="#FFFFFF" transform="translate(0,0)"/>
<path d="" fill="#FFFFFF" transform="translate(0,0)"/>
<path d="" fill="#FFFFFF" transform="translate(0,0)"/>
<path d="" fill="#FFFFFF" transform="translate(0,0)"/>
<path d="" fill="#FFFFFF" transform="translate(0,0)"/>
<path d="" fill="#FFFFFF" transform="translate(0,0)"/>
<path d="" fill="#FFFFFF" transform="translate(0,0)"/>
<path d="" fill="#FFFFFF" transform="translate(0,0)"/>
<path d="" fill="#FFFFFF" transform="translate(0,0)"/>
<path d="" fill="#FFFFFF" transform="translate(0,0)"/>
<path d="" fill="#FFFFFF" transform="translate(0,0)"/>
<path d="" fill="#FFFFFF" transform="translate(0,0)"/>
<path d="" fill="#FFFFFF" transform="translate(0,0)"/>
<path d="" fill="#FFFFFF" transform="translate(0,0)"/>
<path d="" fill="#FFFFFF" transform="translate(0,0)"/>
</svg>
